<svg xmlns="http://www.w3.org/2000/svg" width="59.637" height="59.637" viewBox="0 0 59.637 59.637">
  <defs>
    <style>
      .cls-1 {
        fill: none;
      }

      .cls-2 {
        fill: #767676;
      }

      .cls-3, .cls-4 {
        stroke: none;
      }

      .cls-4 {
        fill: #7c7c7c;
      }
    </style>
  </defs>
  <g id="Cursors_Cross" data-name="Cursors / Cross" transform="translate(-2066 -1715)">
    <rect id="Box" class="cls-1" width="59.637" height="59.637" transform="translate(2066 1715)"/>
    <g id="Path_672" data-name="Path 672" class="cls-2" transform="translate(1654.645 1830.773)">
      <path class="cls-3" d="M 443.5185546875 -74.27220153808594 L 443.0185546875 -74.27220153808594 L 441.192138671875 -74.27220153808594 L 440.692138671875 -74.27220153808594 L 440.692138671875 -74.77220153808594 L 440.692138671875 -85.47274017333984 L 430.0101928710938 -85.47274017333984 L 429.5101928710938 -85.47274017333984 L 429.5101928710938 -85.97274017333984 L 429.5101928710938 -87.79914093017578 L 429.5101928710938 -88.29914093017578 L 430.0101928710938 -88.29914093017578 L 440.692138671875 -88.29914093017578 L 440.692138671875 -98.99969482421875 L 440.692138671875 -99.49969482421875 L 441.192138671875 -99.49969482421875 L 443.0185546875 -99.49969482421875 L 443.5185546875 -99.49969482421875 L 443.5185546875 -98.99969482421875 L 443.5185546875 -88.29914093017578 L 454.200439453125 -88.29914093017578 L 454.700439453125 -88.29914093017578 L 454.700439453125 -87.79914093017578 L 454.700439453125 -85.97274017333984 L 454.700439453125 -85.47274017333984 L 454.200439453125 -85.47274017333984 L 443.5185546875 -85.47274017333984 L 443.5185546875 -74.77220153808594 L 443.5185546875 -74.27220153808594 Z"/>
      <path class="cls-4" d="M 441.192138671875 -98.99969482421875 L 441.192138671875 -87.79914093017578 L 430.0101928710938 -87.79914093017578 L 430.0101928710938 -85.97274017333984 L 441.192138671875 -85.97274017333984 L 441.192138671875 -74.77220153808594 L 443.0185546875 -74.77220153808594 L 443.0185546875 -85.97274017333984 L 454.200439453125 -85.97274017333984 L 454.200439453125 -87.79914093017578 L 443.0185546875 -87.79914093017578 L 443.0185546875 -98.99969482421875 L 441.192138671875 -98.99969482421875 M 440.192138671875 -99.99969482421875 L 441.192138671875 -99.99969482421875 L 443.0185546875 -99.99969482421875 L 444.0185546875 -99.99969482421875 L 444.0185546875 -98.99969482421875 L 444.0185546875 -88.79914093017578 L 454.200439453125 -88.79914093017578 L 455.200439453125 -88.79914093017578 L 455.200439453125 -87.79914093017578 L 455.200439453125 -85.97274017333984 L 455.200439453125 -84.97274017333984 L 454.200439453125 -84.97274017333984 L 444.0185546875 -84.97274017333984 L 444.0185546875 -74.77220153808594 L 444.0185546875 -73.77220153808594 L 443.0185546875 -73.77220153808594 L 441.192138671875 -73.77220153808594 L 440.192138671875 -73.77220153808594 L 440.192138671875 -74.77220153808594 L 440.192138671875 -84.97274017333984 L 430.0101928710938 -84.97274017333984 L 429.0101928710938 -84.97274017333984 L 429.0101928710938 -85.97274017333984 L 429.0101928710938 -87.79914093017578 L 429.0101928710938 -88.79914093017578 L 430.0101928710938 -88.79914093017578 L 440.192138671875 -88.79914093017578 L 440.192138671875 -98.99969482421875 L 440.192138671875 -99.99969482421875 Z"/>
    </g>
  </g>
</svg>
